<?xml version="1.0" encoding="UTF-8" standalone="no"?>
<!-- Created with Inkscape (http://www.inkscape.org/) -->

<svg
   xmlns:ns0="http://www.iki.fi/pav/software/textext/"
   xmlns:dc="http://purl.org/dc/elements/1.1/"
   xmlns:cc="http://creativecommons.org/ns#"
   xmlns:rdf="http://www.w3.org/1999/02/22-rdf-syntax-ns#"
   xmlns:svg="http://www.w3.org/2000/svg"
   xmlns="http://www.w3.org/2000/svg"
   xmlns:sodipodi="http://sodipodi.sourceforge.net/DTD/sodipodi-0.dtd"
   xmlns:inkscape="http://www.inkscape.org/namespaces/inkscape"
   width="408.56143"
   height="98.668167"
   id="svg5357"
   version="1.1"
   inkscape:version="0.48.3.1 r9886"
   sodipodi:docname="New document 8">
  <sodipodi:namedview
     id="base"
     pagecolor="#ffffff"
     bordercolor="#666666"
     borderopacity="1.0"
     inkscape:pageopacity="0.0"
     inkscape:pageshadow="2"
     inkscape:zoom="2.56"
     inkscape:cx="196.25331"
     inkscape:cy="111.57602"
     inkscape:document-units="px"
     inkscape:current-layer="g7787"
     showgrid="false"
     inkscape:window-width="1596"
     inkscape:window-height="1161"
     inkscape:window-x="0"
     inkscape:window-y="37"
     inkscape:window-maximized="0"
     fit-margin-top="0"
     fit-margin-left="0"
     fit-margin-right="0"
     fit-margin-bottom="0" />
  <defs
     id="defs5359">
    <marker
       style="overflow:visible"
       id="Arrow2Mend"
       refX="0"
       refY="0"
       orient="auto"
       inkscape:stockid="Arrow2Mend">
      <path
         transform="scale(-0.6,-0.6)"
         d="M 8.7185878,4.0337352 -2.2072895,0.01601326 8.7185884,-4.0017078 c -1.7454984,2.3720609 -1.7354408,5.6174519 -6e-7,8.035443 z"
         style="fill-rule:evenodd;stroke-width:0.625;stroke-linejoin:round"
         id="path9147"
         inkscape:connector-curvature="0" />
    </marker>
    <marker
       style="overflow:visible"
       id="Arrow2MendX"
       refX="0"
       refY="0"
       orient="auto"
       inkscape:stockid="Arrow2MendX">
      <path
         transform="scale(-0.6,-0.6)"
         d="M 8.7185878,4.0337352 -2.2072895,0.01601326 8.7185884,-4.0017078 c -1.7454984,2.3720609 -1.7354408,5.6174519 -6e-7,8.035443 z"
         style="fill:#008000;fill-rule:evenodd;stroke:#008000;stroke-width:0.625;stroke-linejoin:round"
         id="path9566"
         inkscape:connector-curvature="0" />
    </marker>
  </defs>
  <metadata
     id="metadata5362">
    <rdf:RDF>
      <cc:Work
         rdf:about="">
        <dc:format>image/svg+xml</dc:format>
        <dc:type
           rdf:resource="http://purl.org/dc/dcmitype/StillImage" />
        <dc:title></dc:title>
      </cc:Work>
    </rdf:RDF>
  </metadata>
  <g
     id="layer1"
     inkscape:groupmode="layer"
     inkscape:label="Layer 1"
     transform="translate(-85.679,-449.08681)">
    <g
       id="g7787"
       transform="matrix(1.1,0,0,-1.1,-220,825)"
       xml:space="preserve"
       stroke-miterlimit="10.433"
       font-style="normal"
       font-variant="normal"
       font-weight="normal"
       font-stretch="normal"
       font-size-adjust="none"
       letter-spacing="normal"
       word-spacing="normal"
       ns0:text="\n\\begin{figure}\n    \\centering\n    \\footnotesize\n    \\setatomsep{1.5em}\n    \\chemfig{ CN-[,1.3](-[6,1.3]CN)=_[:30]-[:-18]*5(=-=(-*5(-S-(-*5(=-=(-*5(-S-(-*5(=-=(-[:+18]=_[:-30](-[6,1.3]CN)-[0,1.3]CN)-S-))=(-[:60]-[::60])-(-[:120]-[::-60])=))-S-))=(-[:60]-[::60])-(-[:120]-[::-60])=))-S-)\n    }\n    \\caption{Chemical structure of DCV5T-ethyl, dielectric constant $\\varepsilon_r = 3.5$\\cite{schulze_j_appl_phys_2008}.}\n    \\label{struct_dcv5t-ethyl}\n\\end{figure} "
       ns0:preamble="/home/oelerich/Workspace/MasterThesis/sources/preamble.inc"
       style="font-style:normal;font-variant:normal;font-weight:normal;font-stretch:normal;letter-spacing:normal;word-spacing:normal;text-anchor:start;fill:none;stroke:#000000;stroke-linecap:butt;stroke-linejoin:miter;stroke-miterlimit:10.43299961;stroke-opacity:1;stroke-dasharray:none;stroke-dashoffset:0">
<path
   style="fill:#000000;stroke-width:0"
   inkscape:connector-curvature="0"
   d="m 286.05169,277.997 -0.11072,0.12654 c -0.79086,-0.50616 -1.66081,-0.75923 -2.60984,-0.75923 -2.45167,0 -4.09667,1.62918 -4.09667,4.11249 0,2.30931 1.43938,3.84358 3.60634,3.84358 1.23373,0 2.49912,-0.50616 2.49912,-0.99649 v -0.90158 h 0.39542 c 0.0158,0.63268 0.0633,1.07557 0.23726,1.91389 -1.05975,0.34798 -1.99297,0.50615 -2.91036,0.50615 -1.0914,0 -2.13533,-0.25308 -2.97365,-0.74341 -1.43936,-0.85414 -2.19859,-2.16696 -2.19859,-3.8594 0,-2.72057 1.99297,-4.55537 4.9508,-4.55537 1.04393,0 1.99297,0.22145 2.86291,0.68014 z"
   id="path7789" />
<path
   style="fill:#000000;stroke-width:0"
   inkscape:connector-curvature="0"
   d="m 288.28192,285.58927 -0.0633,0.0158 -0.0633,0 -0.0633,0 -0.0474,0 -0.0633,0 -0.0475,0 -0.0474,0 -0.0475,0 -0.0474,0 -0.0316,0 -0.0474,0 -0.0475,0 -0.0633,0 -0.0791,0 -0.0791,0 -0.0791,0.0158 -0.0474,0 -0.0316,0 -0.0475,0 -0.0475,0 -0.0474,0 -0.0475,0 -0.0474,0 -0.0475,0 -0.0475,0 -0.0633,0.0158 -0.0633,0 -0.0633,0 v -0.37961 l 0.55361,-0.0316 c 0.58523,-0.0474 0.6485,-0.15817 0.6485,-1.13884 v -5.64675 c 0,-0.98067 -0.0633,-1.09139 -0.6485,-1.12303 l -0.55361,-0.0474 v -0.3796 c 1.24956,0.0475 1.24956,0.0475 1.471,0.0475 0.18981,0 0.18981,0 1.50265,-0.0475 v 0.3796 l -0.55361,0.0474 c -0.58524,0.0316 -0.64851,0.14236 -0.64851,1.12303 v 5.82074 l 5.9631,-7.37082 1.13884,-0.20563 c 0,0.0475 0,0.0633 -0.0158,0.14236 -0.0158,0.14235 -0.0316,0.25308 -0.0316,0.31634 v 6.94376 c 0,0.98067 0.0633,1.09139 0.64851,1.13884 l 0.55359,0.0316 v 0.37961 c -1.32864,-0.0475 -1.32864,-0.0475 -1.51845,-0.0475 -0.20562,0 -0.20562,0 -1.45518,0.0475 v -0.37961 l 0.55361,-0.0316 c 0.58522,-0.0474 0.64849,-0.15817 0.64849,-1.13884 v -5.91564 l -6.05799,7.46573 z"
   id="path7791" />
<line
   style="stroke-width:0.63031656"
   x1="300.17648"
   y1="281.23953"
   x2="316.37332"
   y2="281.23953"
   id="line7793" />
<path
   style="fill:#000000;stroke-width:0"
   inkscape:connector-curvature="0"
   d="m 320.34344,253.35375 -0.11072,0.12654 c -0.79086,-0.50615 -1.6608,-0.75923 -2.60984,-0.75923 -2.45167,0 -4.09666,1.62918 -4.09666,4.11249 0,2.30932 1.43936,3.84358 3.60632,3.84358 1.23375,0 2.49913,-0.50615 2.49913,-0.99649 v -0.90157 h 0.39543 c 0.0158,0.63268 0.0633,1.09138 0.23726,1.91388 -1.07558,0.34798 -1.99297,0.52197 -2.91038,0.52197 -1.09138,0 -2.13532,-0.26889 -2.98944,-0.75923 -1.42356,-0.83832 -2.18278,-2.16696 -2.18278,-3.8594 0,-2.72056 1.99297,-4.55536 4.95078,-4.55536 1.04394,0 1.99297,0.22144 2.86292,0.68013 z"
   id="path7795" />
<path
   style="fill:#000000;stroke-width:0"
   inkscape:connector-curvature="0"
   d="m 322.57367,260.96185 -0.0633,0 -0.0633,0 -0.0633,0 -0.0475,0 -0.0633,0 -0.0475,0 -0.0474,0 -0.0475,0 -0.0474,0 -0.0316,0 -0.0474,0 -0.0475,0 -0.0791,0 -0.0633,0.0158 -0.0791,0 -0.0791,0 -0.0475,0 -0.0316,0 -0.0475,0 -0.0474,0 -0.0475,0 -0.0474,0 -0.0475,0 -0.0475,0 -0.0474,0.0158 -0.0633,0 -0.0633,0 -0.0633,0 v -0.37961 l 0.5536,-0.0316 c 0.58524,-0.0474 0.64851,-0.15817 0.64851,-1.13885 v -5.64674 c 0,-0.98067 -0.0633,-1.09138 -0.64851,-1.12302 l -0.5536,-0.0316 v -0.37962 c 1.24956,0.0316 1.24956,0.0316 1.471,0.0316 0.17399,0 0.17399,0 1.50263,-0.0316 v 0.37962 l -0.5536,0.0316 c -0.58523,0.0316 -0.6485,0.14235 -0.6485,1.12302 v 5.82073 l 5.96309,-7.37082 1.13885,-0.20562 c 0,0.0474 0,0.0633 -0.0158,0.15817 -0.0158,0.12654 -0.0316,0.23726 -0.0316,0.31635 v 6.92793 c 0,0.98068 0.0633,1.0914 0.64849,1.13885 l 0.55361,0.0316 v 0.37961 c -1.32864,-0.0316 -1.32864,-0.0316 -1.51845,-0.0316 -0.20563,0 -0.20563,0 -1.45519,0.0316 v -0.37961 l 0.5536,-0.0316 c 0.58524,-0.0474 0.63269,-0.15817 0.63269,-1.13885 v -5.91564 l -6.04217,7.46574 z"
   id="path7797" />
<line
   style="stroke-width:0.63031656"
   x1="316.37332"
   y1="281.23953"
   x2="316.37332"
   y2="264.36258"
   id="line7799" />
<line
   style="stroke-width:0.63031656"
   x1="316.37332"
   y1="281.23953"
   x2="332.75995"
   y2="290.68243"
   id="line7801" />
<line
   style="stroke-width:0.63031656"
   x1="317.95505"
   y1="278.50317"
   x2="334.3259"
   y2="287.96182"
   id="line7803" />
<line
   style="stroke-width:0.63031656"
   x1="332.75995"
   y1="290.68243"
   x2="350.74417"
   y2="284.84583"
   id="line7805" />
<line
   style="stroke-width:0.63031656"
   x1="350.74417"
   y1="284.84583"
   x2="356.58075"
   y2="266.86166"
   id="line7807" />
<line
   style="stroke-width:0.63031656"
   x1="354.4454"
   y1="283.64377"
   x2="358.87421"
   y2="270.00931"
   id="line7809" />
<line
   style="stroke-width:0.63031656"
   x1="356.58075"
   y1="266.86166"
   x2="375.49814"
   y2="266.86166"
   id="line7811" />
<line
   style="stroke-width:0.63031656"
   x1="375.49814"
   y1="266.86166"
   x2="381.33469"
   y2="284.84583"
   id="line7813" />
<line
   style="stroke-width:0.63031656"
   x1="373.20462"
   y1="270.00931"
   x2="377.63345"
   y2="283.64377"
   id="line7815" />
<line
   style="stroke-width:0.63031656"
   x1="381.33469"
   y1="284.84583"
   x2="399.31888"
   y2="290.68243"
   id="line7817" />
<path
   style="fill:#000000;stroke-width:0"
   inkscape:connector-curvature="0"
   d="m 416.93926,281.82476 0,0.0633 0,0.0633 0,0.12654 0,0.11072 0,0.11072 0.0158,0.0949 0,0.11072 0.0158,0.11072 0,0.0949 0.0158,0.11072 0.0158,0.0949 0.0158,0.11072 0.0158,0.11072 0.0158,0.11072 0.0158,0.11072 0.0158,0.0633 0,0.0633 0.0158,0.0633 0.0158,0.0474 c -1.0123,0.41124 -1.58172,0.53778 -2.26187,0.53778 -1.88225,0 -3.24252,-1.18629 -3.24252,-2.83128 0,-0.61687 0.15817,-1.05976 0.52197,-1.40774 0.42705,-0.39543 1.01229,-0.58523 2.23023,-0.75922 0.98066,-0.12653 1.40773,-0.26889 1.73989,-0.5536 0.33216,-0.2689 0.47452,-0.63269 0.47452,-1.10721 0,-1.13884 -0.93322,-1.94552 -2.24605,-1.94552 -1.0123,0 -1.99298,0.47452 -2.05624,0.99649 l -0.0949,0.83831 h -0.41125 c 0.0158,-0.22144 0.0158,-0.42706 0.0158,-0.49033 0,-0.58524 -0.0316,-0.86995 -0.0949,-1.42356 0.71177,-0.31634 1.43937,-0.49033 2.16696,-0.49033 2.1986,0 3.78032,1.32865 3.78032,3.14763 0,0.60106 -0.15818,1.01231 -0.50616,1.32864 -0.44287,0.42707 -0.98066,0.58524 -2.3884,0.77505 -1.53427,0.20563 -2.07205,0.61688 -2.07205,1.58172 0,1.05976 0.79086,1.80317 1.89806,1.80317 0.49034,0 0.94904,-0.0949 1.29702,-0.28471 0.41125,-0.20562 0.55361,-0.39543 0.58524,-0.75923 l 0.0791,-0.7276 z"
   id="path7819" />
<line
   style="stroke-width:0.63031656"
   x1="399.31888"
   y1="290.68243"
   x2="408.76178"
   y2="283.83356"
   id="line7821" />
<line
   style="stroke-width:0.63031656"
   x1="420.48233"
   y1="283.83356"
   x2="429.90939"
   y2="290.68243"
   id="line7823" />
<line
   style="stroke-width:0.63031656"
   x1="429.90939"
   y1="290.68243"
   x2="447.89359"
   y2="284.84583"
   id="line7825" />
<line
   style="stroke-width:0.63031656"
   x1="447.89359"
   y1="284.84583"
   x2="453.74594"
   y2="266.86166"
   id="line7827" />
<line
   style="stroke-width:0.63031656"
   x1="451.61063"
   y1="283.64377"
   x2="456.03943"
   y2="270.00931"
   id="line7829" />
<line
   style="stroke-width:0.63031656"
   x1="453.74594"
   y1="266.86166"
   x2="472.64752"
   y2="266.86166"
   id="line7831" />
<line
   style="stroke-width:0.63031656"
   x1="472.64752"
   y1="266.86166"
   x2="478.49994"
   y2="284.84583"
   id="line7833" />

<line
   style="stroke-width:0.63031656"
   x1="478.49994"
   y1="284.84583"
   x2="496.4841"
   y2="290.68243"
   id="line7837" />
<path
   style="fill:#000000;stroke-width:0"
   inkscape:connector-curvature="0"
   d="m 514.1045,281.82476 0,0.0633 0,0.0633 0,0.12654 0,0.11072 0,0.11072 0,0.0949 0.0158,0.11072 0,0.11072 0.0158,0.0949 0.0158,0.11072 0.0158,0.0949 0.0158,0.11072 0.0158,0.11072 0.0158,0.11072 0.0158,0.11072 0.0158,0.0633 0,0.0633 0.0158,0.0633 0.0158,0.0474 c -1.0123,0.41124 -1.58173,0.53778 -2.27768,0.53778 -1.86644,0 -3.22672,-1.18629 -3.22672,-2.83128 0,-0.61687 0.15818,-1.05976 0.52197,-1.40774 0.42707,-0.39543 1.0123,-0.58523 2.23023,-0.75922 0.96485,-0.12653 1.40773,-0.26889 1.7399,-0.5536 0.33216,-0.2689 0.47451,-0.63269 0.47451,-1.10721 0,-1.13884 -0.94903,-1.94552 -2.24604,-1.94552 -1.01231,0 -1.99297,0.47452 -2.05624,0.99649 l -0.0949,0.83831 h -0.41125 c 0.0158,-0.22144 0.0158,-0.42706 0.0158,-0.49033 0,-0.58524 -0.0316,-0.86995 -0.0949,-1.42356 0.71178,-0.31634 1.43936,-0.49033 2.16696,-0.49033 2.19859,0 3.78031,1.32865 3.78031,3.14763 0,0.60106 -0.15817,1.01231 -0.52196,1.32864 -0.42706,0.42707 -0.96485,0.58524 -2.37258,0.77505 -1.53428,0.20563 -2.07206,0.61688 -2.07206,1.58172 0,1.05976 0.79086,1.80317 1.89807,1.80317 0.49033,0 0.94903,-0.0949 1.29701,-0.28471 0.41125,-0.20562 0.5536,-0.39543 0.58524,-0.75923 l 0.0791,-0.7276 z"
   id="path7839" />
<line
   style="stroke-width:0.63031656"
   x1="496.4841"
   y1="290.68243"
   x2="505.92697"
   y2="283.83356"
   id="line7841" />
<line
   style="stroke-width:0.63031656"
   x1="517.63171"
   y1="283.83356"
   x2="527.07458"
   y2="290.68243"
   id="line7843" />
<line
   style="stroke-width:0.63031656"
   x1="527.07458"
   y1="290.68243"
   x2="545.05878"
   y2="284.84583"
   id="line7845" />
<line
   style="stroke-width:0.63031656"
   x1="545.05878"
   y1="284.84583"
   x2="550.91113"
   y2="266.86166"
   id="line7847" />
<line
   style="stroke-width:0.63031656"
   x1="548.77582"
   y1="283.64377"
   x2="553.20465"
   y2="270.00931"
   id="line7849" />
<line
   style="stroke-width:0.63031656"
   x1="550.91113"
   y1="266.86166"
   x2="569.81281"
   y2="266.86166"
   id="line7851" />
<line
   style="stroke-width:0.63031656"
   x1="569.81281"
   y1="266.86166"
   x2="575.66516"
   y2="284.84583"
   id="line7853" />
<line
   style="stroke-width:0.63031656"
   x1="567.53516"
   y1="270.00931"
   x2="571.94812"
   y2="283.64377"
   id="line7855" />
<line
   style="stroke-width:0.63031656"
   x1="575.66516"
   y1="284.84583"
   x2="593.64929"
   y2="290.68243"
   id="line7857" />
<line
   style="stroke-width:0.63031656"
   x1="593.64929"
   y1="290.68243"
   x2="610.02014"
   y2="281.23953"
   id="line7859" />
<line
   style="stroke-width:0.63031656"
   x1="592.06757"
   y1="287.96182"
   x2="608.45428"
   y2="278.50317"
   id="line7861" />
<path
   style="fill:#000000;stroke-width:0"
   inkscape:connector-curvature="0"
   d="m 613.9903,253.35375 -0.12653,0.12654 c -0.77505,-0.50615 -1.64499,-0.75923 -2.59403,-0.75923 -2.46749,0 -4.09666,1.62918 -4.09666,4.11249 0,2.30932 1.43936,3.84358 3.60632,3.84358 1.23375,0 2.49913,-0.50615 2.49913,-0.99649 v -0.90157 h 0.39543 c 0,0.63268 0.0633,1.09138 0.23726,1.91388 -1.07558,0.34798 -1.99297,0.52197 -2.91038,0.52197 -1.09138,0 -2.13532,-0.26889 -2.98946,-0.75923 -1.42354,-0.83832 -2.18277,-2.16696 -2.18277,-3.8594 0,-2.72056 1.99298,-4.55536 4.95079,-4.55536 1.04394,0 1.97715,0.22144 2.84711,0.68013 z"
   id="path7863" />
<path
   style="fill:#000000;stroke-width:0"
   inkscape:connector-curvature="0"
   d="m 616.20472,260.96185 -0.0633,0 -0.0633,0 -0.0475,0 -0.0633,0 -0.0475,0 -0.0474,0 -0.0475,0 -0.0475,0 -0.0475,0 -0.0474,0 -0.0316,0 -0.0475,0 -0.0791,0 -0.0791,0.0158 -0.0633,0 -0.0791,0 -0.0475,0 -0.0475,0 -0.0316,0 -0.0475,0 -0.0475,0 -0.0475,0 -0.0475,0 -0.0474,0 -0.0633,0.0158 -0.0475,0 -0.0633,0 -0.0633,0 v -0.37961 l 0.55361,-0.0316 c 0.58524,-0.0474 0.63269,-0.15817 0.63269,-1.13885 v -5.64674 c 0,-0.98067 -0.0475,-1.09138 -0.63269,-1.12302 l -0.55361,-0.0316 v -0.37962 c 1.24957,0.0316 1.24957,0.0316 1.45519,0.0316 0.18981,0 0.18981,0 1.51845,-0.0316 v 0.37962 l -0.5536,0.0316 c -0.58523,0.0316 -0.6485,0.14235 -0.6485,1.12302 v 5.82073 l 5.96309,-7.37082 1.12302,-0.20562 c 0,0.0474 0,0.0633 -0.0158,0.15817 0,0.12654 -0.0158,0.23726 -0.0158,0.31635 v 6.92793 c 0,0.98068 0.0633,1.0914 0.64851,1.13885 l 0.5536,0.0316 v 0.37961 c -1.32864,-0.0316 -1.32864,-0.0316 -1.51845,-0.0316 -0.20562,0 -0.20562,0 -1.45519,0.0316 v -0.37961 l 0.5536,-0.0316 c 0.56943,-0.0474 0.6327,-0.15817 0.6327,-1.13885 v -5.91564 l -6.05801,7.46574 z"
   id="path7865" />
<line
   style="stroke-width:0.63031656"
   x1="610.02014"
   y1="281.23953"
   x2="610.02014"
   y2="264.36258"
   id="line7867" />
<path
   style="fill:#000000;stroke-width:0"
   inkscape:connector-curvature="0"
   d="m 638.57028,277.93373 -0.11072,0.12654 c -0.79087,-0.50616 -1.66082,-0.75923 -2.60985,-0.75923 -2.45167,0 -4.09666,1.645 -4.09666,4.11249 0,2.30931 1.43937,3.84358 3.60633,3.84358 1.23375,0 2.49912,-0.49034 2.49912,-0.98067 v -0.9174 h 0.39543 c 0.0158,0.63268 0.0633,1.09139 0.23726,1.91389 -1.07557,0.34798 -1.99297,0.52197 -2.91037,0.52197 -1.09138,0 -2.13533,-0.2689 -2.98946,-0.75923 -1.42355,-0.83832 -2.18278,-2.16696 -2.18278,-3.8594 0,-2.72057 1.99297,-4.55537 4.9508,-4.55537 1.04394,0 1.99297,0.23726 2.86292,0.68014 z"
   id="path7869" />
<path
   style="fill:#000000;stroke-width:0"
   inkscape:connector-curvature="0"
   d="m 640.80051,285.54182 -0.0633,0 -0.0633,0 -0.0633,0 -0.0474,0 -0.0633,0 -0.0475,0 -0.0475,0 -0.0475,0 -0.0475,0 -0.0316,0 -0.0475,0 -0.0475,0.0158 -0.0791,0 -0.0633,0 -0.0791,0 -0.0791,0 -0.0475,0 -0.0316,0 -0.0475,0 -0.0475,0 -0.0475,0 -0.0475,0 -0.0474,0.0158 -0.0475,0 -0.0475,0 -0.0633,0 -0.0633,0 -0.0633,0 v -0.37962 l 0.5536,-0.0316 c 0.58524,-0.0316 0.64851,-0.14236 0.64851,-1.12303 v -5.64675 c 0,-0.98067 -0.0633,-1.10721 -0.64851,-1.13885 l -0.5536,-0.0316 v -0.3796 c 1.24956,0.0316 1.24956,0.0316 1.47101,0.0316 0.17399,0 0.17399,0 1.50263,-0.0316 v 0.3796 l -0.55361,0.0316 c -0.58523,0.0316 -0.64849,0.15818 -0.64849,1.13885 v 5.82074 l 5.96309,-7.38664 1.13883,-0.20563 c 0,0.0633 0,0.0633 -0.0158,0.15818 -0.0158,0.14235 -0.0316,0.23726 -0.0316,0.31634 v 6.94376 c 0,0.98067 0.0633,1.09139 0.64851,1.12303 l 0.55361,0.0316 v 0.37962 c -1.32866,-0.0316 -1.32866,-0.0316 -1.51845,-0.0316 -0.20563,0 -0.20563,0 -1.4552,0.0316 v -0.37962 l 0.55361,-0.0316 c 0.58524,-0.0316 0.63269,-0.14236 0.63269,-1.12303 v -5.93146 l -6.04219,7.46574 z"
   id="path7871" />
<line
   style="stroke-width:0.63031656"
   x1="610.02014"
   y1="281.23953"
   x2="626.99207"
   y2="281.23953"
   id="line7873" />
<path
   style="fill:#000000;stroke-width:0"
   inkscape:connector-curvature="0"
   d="m 562.67921,298.21142 0,0.0633 0,0.0633 0,0.11072 0,0.12654 0.0158,0.11072 0,0.0949 0,0.11072 0.0158,0.11072 0,0.0949 0.0158,0.11072 0.0158,0.0949 0.0158,0.11072 0.0158,0.11072 0.0158,0.11073 0.0158,0.11072 0.0158,0.0633 0.0158,0.0633 0,0.0475 0.0158,0.0633 c -1.01231,0.41125 -1.58173,0.53779 -2.26186,0.53779 -1.88225,0 -3.24254,-1.18629 -3.24254,-2.83129 0,-0.61687 0.15817,-1.07557 0.53779,-1.40773 0.42707,-0.39543 0.99649,-0.58524 2.23023,-0.75923 0.96486,-0.14236 1.40773,-0.2689 1.72407,-0.55361 0.33217,-0.26888 0.49034,-0.63268 0.49034,-1.1072 0,-1.13884 -0.94904,-1.96133 -2.26186,-1.96133 -1.01231,0 -1.99297,0.49033 -2.05624,1.01229 l -0.0949,0.83832 h -0.41125 c 0.0158,-0.22144 0.0158,-0.42707 0.0158,-0.50615 0,-0.56941 -0.0158,-0.85413 -0.0949,-1.40773 0.71178,-0.31635 1.45519,-0.49034 2.18278,-0.49034 2.18277,0 3.78032,1.32866 3.78032,3.14763 0,0.58523 -0.17399,1.0123 -0.52197,1.32865 -0.44288,0.42706 -0.96486,0.58524 -2.3884,0.77505 -1.53427,0.20562 -2.07206,0.61686 -2.07206,1.58171 0,1.05976 0.79086,1.80317 1.89807,1.80317 0.49033,0 0.96484,-0.0949 1.297,-0.28471 0.41125,-0.20563 0.55361,-0.39543 0.60106,-0.75922 l 0.0633,-0.7276 z"
   id="path7875" />
<line
   style="stroke-width:0.63031656"
   x1="575.66516"
   y1="284.84583"
   x2="566.22223"
   y2="291.71051"
   id="line7877" />
<line
   style="stroke-width:0.63031656"
   x1="554.50171"
   y1="291.71051"
   x2="545.05878"
   y2="284.84583"
   id="line7879" />
<line
   style="stroke-width:0.63031656"
   x1="527.07458"
   y1="290.68243"
   x2="521.23804"
   y2="308.6666"
   id="line7881" />

<line
   style="stroke-width:0.63031656"
   x1="521.23804"
   y1="308.6666"
   x2="530.69678"
   y2="325.05328"
   id="line7885" />
<line
   style="stroke-width:0.63031656"
   x1="530.69678"
   y1="325.05328"
   x2="521.23804"
   y2="341.4241"
   id="line7887" />
<line
   style="stroke-width:0.63031656"
   x1="521.23804"
   y1="308.6666"
   x2="502.32068"
   y2="308.6666"
   id="line7889" />
<line
   style="stroke-width:0.63031656"
   x1="502.32068"
   y1="308.6666"
   x2="492.86194"
   y2="325.05328"
   id="line7891" />
<line
   style="stroke-width:0.63031656"
   x1="492.86194"
   y1="325.05328"
   x2="502.32068"
   y2="341.4241"
   id="line7893" />
<line
   style="stroke-width:0.63031656"
   x1="502.32068"
   y1="308.6666"
   x2="496.4841"
   y2="290.68243"
   id="line7895" />
<line
   style="stroke-width:0.63031656"
   x1="504.6142"
   y1="305.51898"
   x2="500.18533"
   y2="291.90036"
   id="line7897" />
<path
   style="fill:#000000;stroke-width:0"
   inkscape:connector-curvature="0"
   d="m 465.51398,298.21142 0,0.0633 0,0.0633 0,0.11072 0,0.12654 0.0158,0.11072 0,0.0949 0,0.11072 0.0158,0.11072 0.0158,0.0949 0,0.11072 0.0158,0.0949 0.0158,0.11072 0.0158,0.11072 0.0158,0.11073 0.0158,0.11072 0.0158,0.0633 0.0158,0.0633 0,0.0475 0.0158,0.0633 c -1.0123,0.41125 -1.56591,0.53779 -2.26187,0.53779 -1.88225,0 -3.24252,-1.18629 -3.24252,-2.83129 0,-0.61687 0.17399,-1.07557 0.53779,-1.40773 0.42706,-0.39543 0.99648,-0.58524 2.23023,-0.75923 0.96484,-0.14236 1.40772,-0.2689 1.72407,-0.55361 0.33216,-0.26888 0.49034,-0.63268 0.49034,-1.1072 0,-1.13884 -0.94904,-1.96133 -2.26187,-1.96133 -0.99649,0 -1.97715,0.49033 -2.04042,1.01229 l -0.11072,0.83832 h -0.39543 c 0,-0.22144 0,-0.42707 0,-0.50615 0,-0.56941 -0.0158,-0.85413 -0.0949,-1.40773 0.71178,-0.31635 1.45519,-0.49034 2.18278,-0.49034 2.18278,0 3.78032,1.32866 3.78032,3.14763 0,0.58523 -0.17399,1.0123 -0.52198,1.32865 -0.44287,0.42706 -0.96484,0.58524 -2.38839,0.77505 -1.53428,0.20562 -2.07206,0.61686 -2.07206,1.58171 0,1.05976 0.79086,1.80317 1.89807,1.80317 0.49033,0 0.96485,-0.0949 1.29701,-0.28471 0.42707,-0.20563 0.55361,-0.39543 0.60106,-0.75922 l 0.0791,-0.7276 z"
   id="path7899" />
<line
   style="stroke-width:0.63031656"
   x1="478.49994"
   y1="284.84583"
   x2="469.05704"
   y2="291.71051"
   id="line7901" />
<line
   style="stroke-width:0.63031656"
   x1="457.33646"
   y1="291.71051"
   x2="447.89359"
   y2="284.84583"
   id="line7903" />
<line
   style="stroke-width:0.63031656"
   x1="429.90939"
   y1="290.68243"
   x2="424.07281"
   y2="308.6666"
   id="line7905" />
<line
   style="stroke-width:0.63031656"
   x1="426.20816"
   y1="291.90036"
   x2="421.7793"
   y2="305.51898"
   id="line7907" />
<line
   style="stroke-width:0.63031656"
   x1="424.07281"
   y1="308.6666"
   x2="433.53152"
   y2="325.05328"
   id="line7909" />
<line
   style="stroke-width:0.63031656"
   x1="433.53152"
   y1="325.05328"
   x2="424.07281"
   y2="341.4241"
   id="line7911" />
<line
   style="stroke-width:0.63031656"
   x1="424.07281"
   y1="308.6666"
   x2="405.15543"
   y2="308.6666"
   id="line7913" />
<line
   style="stroke-width:0.63031656"
   x1="405.15543"
   y1="308.6666"
   x2="395.71252"
   y2="325.05328"
   id="line7915" />
<line
   style="stroke-width:0.63031656"
   x1="395.71252"
   y1="325.05328"
   x2="405.15543"
   y2="341.4241"
   id="line7917" />
<line
   style="stroke-width:0.63031656"
   x1="405.15543"
   y1="308.6666"
   x2="399.31888"
   y2="290.68243"
   id="line7919" />
<line
   style="stroke-width:0.63031656"
   x1="407.44891"
   y1="305.51898"
   x2="403.02011"
   y2="291.90036"
   id="line7921" />
<path
   style="fill:#000000;stroke-width:0"
   inkscape:connector-curvature="0"
   d="m 368.34873,298.21142 0,0.0633 0,0.0633 0,0.11072 0.0158,0.12654 0,0.11072 0,0.0949 0.0158,0.11072 0,0.11072 0.0158,0.0949 0.0158,0.11072 0,0.0949 0.0158,0.11072 0.0158,0.11072 0.0158,0.11073 0.0316,0.11072 0,0.0633 0.0158,0.0633 0.0158,0.0475 0,0.0633 c -0.99648,0.41125 -1.5659,0.53779 -2.26186,0.53779 -1.86643,0 -3.24253,-1.18629 -3.24253,-2.83129 0,-0.61687 0.17399,-1.07557 0.53778,-1.40773 0.42707,-0.39543 1.01231,-0.58524 2.23023,-0.75923 0.96485,-0.14236 1.40774,-0.2689 1.7399,-0.55361 0.31635,-0.26888 0.47451,-0.63268 0.47451,-1.1072 0,-1.13884 -0.94903,-1.96133 -2.26186,-1.96133 -0.99648,0 -1.97716,0.49033 -2.04043,1.01229 l -0.11072,0.83832 h -0.39542 c 0.0158,-0.22144 0.0158,-0.42707 0.0158,-0.50615 0,-0.56941 -0.0316,-0.85413 -0.11072,-1.40773 0.72758,-0.31635 1.45518,-0.49034 2.18277,-0.49034 2.18278,0 3.78032,1.32866 3.78032,3.14763 0,0.58523 -0.17399,1.0123 -0.52197,1.32865 -0.44289,0.42706 -0.96485,0.58524 -2.37259,0.77505 -1.53427,0.20562 -2.08787,0.61686 -2.08787,1.58171 0,1.05976 0.80668,1.80317 1.89806,1.80317 0.50616,0 0.96486,-0.0949 1.29702,-0.28471 0.42707,-0.20563 0.56943,-0.39543 0.60106,-0.75922 l 0.0791,-0.7276 z"
   id="path7923" />
<line
   style="stroke-width:0.63031656"
   x1="381.33469"
   y1="284.84583"
   x2="371.89182"
   y2="291.71051"
   id="line7925" />
<line
   style="stroke-width:0.63031656"
   x1="360.17123"
   y1="291.71051"
   x2="350.74417"
   y2="284.84583"
   id="line7927" />










































































<path
   transform="matrix(0.49135406,0,0,-0.49135406,397.86788,459.45847)"
   d="m 169.92187,372.47937 c 0,8.30584 -6.73321,15.03906 -15.03906,15.03906 -8.30584,0 -15.03906,-6.73322 -15.03906,-15.03906 0,-8.30584 6.73322,-15.03906 15.03906,-15.03906 8.30585,0 15.03906,6.73322 15.03906,15.03906 z"
   sodipodi:ry="15.039062"
   sodipodi:rx="15.039062"
   sodipodi:cy="372.47937"
   sodipodi:cx="154.88281"
   id="path8448"
   style="fill:#008000;fill-opacity:1;stroke:none"
   sodipodi:type="arc" /><path
   transform="matrix(0.49135406,0,0,-0.49135406,447.05112,482.00818)"
   d="m 169.92187,372.47937 c 0,8.30584 -6.73321,15.03906 -15.03906,15.03906 -8.30584,0 -15.03906,-6.73322 -15.03906,-15.03906 0,-8.30584 6.73322,-15.03906 15.03906,-15.03906 8.30585,0 15.03906,6.73322 15.03906,15.03906 z"
   sodipodi:ry="15.039062"
   sodipodi:rx="15.039062"
   sodipodi:cy="372.47937"
   sodipodi:cx="154.88281"
   id="path8448-6"
   style="fill:#b2cab2;fill-opacity:1;stroke:none"
   sodipodi:type="arc" /><path
   sodipodi:nodetypes="cc"
   transform="matrix(0.90909091,0,0,-0.90909091,200,750)"
   inkscape:connector-curvature="0"
   id="path9114"
   d="m 304.39994,511.16308 c 10.36662,-19.82729 13.98112,-20.68684 40.03907,-16.21093"
   style="fill:none;stroke:#008000;stroke-width:1.5;stroke-linecap:butt;stroke-linejoin:miter;stroke-miterlimit:10.43299961;stroke-opacity:1;stroke-dasharray:3, 1.5;stroke-dashoffset:0;marker-end:url(#Arrow2MendX)" /></g>  </g>
</svg>
